<?xml version="1.0" standalone="no"?>
<!DOCTYPE svg PUBLIC "-//W3C//DTD SVG 20010904//EN"
 "http://www.w3.org/TR/2001/REC-SVG-20010904/DTD/svg10.dtd">
<svg version="1.0" xmlns="http://www.w3.org/2000/svg"
 width="1536.000000pt" height="1536.000000pt" viewBox="0 0 1536.000000 1536.000000"
 preserveAspectRatio="xMidYMid meet">
<metadata>
Created by potrace 1.14, written by Peter Selinger 2001-2017
</metadata>
<g transform="translate(0.000000,1536.000000) scale(0.100000,-0.100000)"
fill="#000000" stroke="none">
<path d="M0 12984 c0 -1307 3 -2374 8 -2372 12 5 332 197 422 253 47 29 193
114 325 190 412 237 547 316 645 375 52 32 176 104 275 160 99 57 221 128 270
158 50 30 167 99 262 153 95 54 259 149 365 212 885 524 1066 605 1466 657
189 24 224 25 263 5 16 -9 34 -13 40 -10 5 4 8 2 7 -2 -2 -5 69 -58 157 -118
88 -60 175 -119 194 -132 19 -13 40 -31 47 -41 7 -9 18 -17 26 -17 7 -1 12 -7
10 -14 -1 -7 2 -9 8 -6 6 4 10 1 9 -6 -1 -8 3 -25 9 -39 11 -23 12 -22 5 10
-3 19 -6 46 -5 60 1 23 0 23 -8 5 -7 -17 -9 -14 -9 14 -1 20 -8 39 -18 47 -21
16 -57 19 -48 4 3 -5 15 -10 25 -10 21 0 37 -37 22 -52 -6 -6 -12 0 -16 16 -3
14 -12 26 -18 26 -19 0 -57 41 -51 56 3 8 0 21 -7 29 -15 18 -55 21 -44 3 5
-7 3 -8 -5 -3 -9 5 -10 10 -2 18 7 7 0 20 -25 44 -35 33 -37 33 -62 17 l-26
-17 22 28 c15 19 22 42 22 73 l0 45 -55 -6 -55 -6 0 125 c0 76 -4 124 -10 124
-5 0 -10 18 -10 40 0 38 -2 40 -30 40 -28 0 -30 2 -30 40 0 36 -2 40 -25 40
-23 0 -25 3 -25 51 0 43 -4 54 -25 71 -32 25 -32 38 0 38 16 0 25 6 25 15 0
12 -16 15 -80 15 -79 0 -80 0 -80 25 0 24 -3 25 -55 25 l-55 0 0 40 c0 29 4
40 15 40 11 0 15 11 15 40 0 29 -4 40 -15 40 -11 0 -15 11 -15 40 0 36 -2 40
-25 40 l-25 0 0 120 c0 100 -2 120 -15 120 -11 0 -15 11 -15 40 l0 40 70 0 70
0 0 40 c0 38 -2 40 -30 40 l-30 0 0 80 c0 64 3 80 15 80 11 0 15 -11 15 -40 0
-29 4 -40 15 -40 12 0 15 16 15 80 l0 80 -30 0 c-28 0 -30 2 -30 40 0 29 4 40
15 40 11 0 15 11 15 40 0 29 4 40 15 40 12 0 15 16 15 80 l0 80 -40 0 -40 0 0
40 c0 29 -4 40 -15 40 -11 0 -15 11 -15 40 0 29 4 40 15 40 11 0 15 11 15 40
0 29 -4 40 -15 40 -11 0 -15 11 -15 40 0 36 3 40 25 40 l25 0 0 200 0 200
-2025 0 -2025 0 0 -2376z m4420 -188 c0 -2 -7 -7 -16 -10 -8 -3 -12 -2 -9 4 6
10 25 14 25 6z m75 -85 c3 -5 2 -12 -3 -15 -5 -3 -9 1 -9 9 0 17 3 19 12 6z
m55 5 c0 -2 -9 -11 -19 -21 -19 -16 -20 -16 -18 2 0 11 9 20 19 20 10 1 18 0
18 -1z m78 -90 c-2 -1 -10 -7 -20 -14 -11 -9 -18 -10 -23 -2 -4 6 -1 9 7 8 7
-2 12 2 11 9 -2 7 4 10 13 6 8 -3 14 -6 12 -7z"/>
<path d="M10960 15240 l0 -120 40 0 40 0 0 -40 c0 -29 4 -40 15 -40 12 0 15
-16 15 -80 l0 -80 -30 0 c-28 0 -30 -2 -30 -40 0 -38 2 -40 30 -40 l30 0 0
-160 c0 -100 4 -160 10 -160 6 0 10 -33 10 -80 l0 -80 30 0 30 0 0 -80 c0 -64
-3 -80 -15 -80 -11 0 -15 -11 -15 -40 0 -29 4 -40 15 -40 11 0 15 -11 15 -40
0 -29 -4 -40 -15 -40 -11 0 -15 -11 -15 -40 0 -36 -2 -40 -25 -40 -22 0 -25
-4 -25 -40 0 -29 -4 -40 -15 -40 -12 0 -15 -20 -15 -120 l0 -120 -40 0 -40 0
0 -80 0 -80 -55 0 -55 0 0 -80 c0 -64 3 -80 15 -80 11 0 15 -11 15 -40 0 -29
-4 -40 -15 -40 -11 0 -15 -11 -15 -40 0 -36 -2 -40 -25 -40 -22 0 -25 -4 -25
-40 0 -29 -4 -40 -15 -40 -11 0 -15 -11 -15 -40 0 -22 -4 -40 -10 -40 -5 0
-10 -18 -10 -40 l0 -40 -55 0 -55 0 0 -40 0 -40 -40 0 -40 0 0 -40 0 -40 -40
0 -40 0 0 -40 0 -40 -40 0 -40 0 0 -40 c0 -29 -4 -40 -15 -40 -11 0 -15 -11
-15 -40 0 -29 4 -40 15 -40 11 0 15 -11 15 -40 l0 -40 -41 0 -42 0 5 -50 c4
-43 2 -52 -14 -61 -12 -7 -17 -17 -13 -28 4 -15 -1 -20 -30 -25 -20 -4 -46
-18 -57 -32 -12 -13 -28 -24 -36 -24 -9 0 -13 -7 -9 -20 3 -11 0 -23 -5 -27
-6 -3 -8 -1 -5 4 4 6 0 14 -9 17 -24 9 -31 7 -14 -4 11 -7 11 -10 2 -10 -7 0
-11 -4 -8 -9 4 -5 -3 -7 -15 -4 -13 4 -17 8 -9 13 8 5 7 9 -3 13 -23 9 -14
-21 11 -39 21 -15 27 -13 93 23 65 36 88 60 55 57 -7 -1 -13 5 -13 12 0 18 6
18 28 -2 16 -15 22 -14 68 12 28 15 51 32 51 37 0 6 3 8 6 5 3 -4 60 26 127
64 67 39 178 102 247 141 69 38 136 78 150 87 14 9 86 50 160 91 170 93 189
95 305 28 96 -55 314 -191 525 -327 168 -109 395 -249 700 -432 107 -65 285
-173 395 -240 110 -68 261 -159 335 -203 217 -129 382 -241 428 -290 23 -26
42 -51 42 -56 0 -11 -54 -59 -113 -100 -44 -30 -423 -254 -542 -321 -33 -18
-109 -63 -170 -100 -60 -36 -141 -84 -180 -105 -38 -21 -119 -70 -180 -109
-60 -38 -220 -135 -355 -214 -548 -323 -970 -574 -1012 -603 -15 -11 -39 -19
-54 -19 -33 0 -176 -79 -336 -184 -16 -10 -28 -16 -28 -12 0 10 311 212 427
277 60 34 158 91 218 128 61 37 139 84 175 106 36 21 117 70 180 110 63 40
197 123 298 185 100 61 182 113 182 115 0 2 -21 13 -47 26 -27 12 -79 41 -118
64 -71 42 -372 219 -635 373 -165 97 -147 85 -425 264 -115 75 -233 148 -262
162 l-51 27 -69 -35 c-57 -29 -461 -270 -755 -450 -43 -26 -83 -46 -90 -44 -7
3 21 22 62 44 70 37 417 247 544 328 31 20 111 68 178 107 116 68 124 70 158
60 19 -6 108 -58 197 -116 89 -58 188 -119 219 -136 l57 -29 66 37 c36 20 118
68 181 106 110 67 141 85 276 159 118 64 108 48 114 196 4 105 8 134 23 149 9
11 14 23 10 28 -5 4 -2 5 5 1 7 -4 31 4 55 19 37 24 272 155 399 224 48 26 60
41 33 41 -8 0 -42 13 -75 29 -33 16 -62 25 -66 20 -3 -5 3 -9 12 -9 10 0 14
-3 11 -7 -9 -9 13 -34 24 -27 5 3 9 1 9 -4 0 -5 -10 -14 -22 -21 l-23 -11 24
6 c21 5 22 4 10 -9 -8 -8 -17 -13 -21 -10 -5 2 -16 -1 -25 -6 -10 -6 -13 -11
-8 -11 11 -1 -35 -29 -48 -30 -5 0 -5 5 -1 11 8 13 -48 -21 -58 -35 -3 -5 -14
-11 -23 -12 -9 -1 -20 -6 -23 -10 -4 -4 1 -4 10 -1 10 3 20 2 23 -4 4 -5 3 -9
-2 -8 -26 5 -55 -3 -72 -20 -10 -10 -35 -25 -54 -32 -33 -11 -34 -14 -19 -27
9 -7 12 -11 5 -7 -21 10 -81 -22 -128 -70 -25 -25 -43 -50 -40 -55 3 -5 -1
-22 -9 -37 -11 -20 -15 -23 -16 -10 0 15 -14 17 -160 17 -100 0 -160 -4 -160
-10 0 -6 -33 -10 -80 -10 -47 0 -80 4 -80 10 0 6 -18 10 -40 10 -29 0 -40 4
-40 15 0 11 -11 15 -40 15 -23 0 -40 5 -40 11 0 6 -11 20 -25 31 -14 11 -25
24 -25 29 0 5 11 9 25 9 16 0 25 6 25 15 0 12 -16 15 -80 15 -47 0 -80 4 -80
10 0 6 -18 10 -40 10 -29 0 -40 4 -40 15 0 11 -11 15 -40 15 -29 0 -40 4 -40
15 0 12 -16 15 -80 15 -47 0 -80 4 -80 10 0 6 -18 10 -40 10 -29 0 -40 4 -40
15 0 11 -11 15 -40 15 -29 0 -40 4 -40 15 0 11 -11 15 -40 15 -22 0 -40 5 -40
10 0 6 -18 10 -40 10 -29 0 -40 4 -40 15 0 11 -11 15 -39 15 -22 0 -41 5 -43
10 -2 6 -55 13 -121 17 -64 3 -117 10 -117 15 0 4 -25 8 -56 8 -51 0 -55 2
-43 16 7 9 14 23 15 31 2 12 -1 12 -21 -1 -37 -24 -41 -19 -9 10 30 27 13 23
-19 -5 -10 -8 -24 -16 -31 -17 -7 -1 -25 -10 -40 -19 -23 -15 -24 -19 -11 -29
14 -10 14 -12 -4 -12 -11 0 -17 4 -15 8 7 11 -11 10 -40 -3 -14 -7 -23 -17
-19 -23 3 -6 3 -8 -2 -4 -10 9 -65 -19 -65 -33 0 -6 -5 -7 -10 -4 -6 3 -22 -2
-38 -13 -15 -10 -112 -68 -217 -127 -104 -59 -216 -125 -247 -147 -62 -41 -80
-48 -55 -20 15 17 17 84 19 708 3 672 2 690 -17 729 -23 47 -46 53 -95 27 -75
-39 -680 -377 -760 -425 -72 -43 -447 -259 -670 -387 -36 -20 -75 -40 -87 -44
-13 -4 -23 -11 -23 -15 0 -4 71 -50 158 -103 290 -175 566 -344 652 -398 47
-29 164 -101 260 -160 96 -59 234 -144 305 -190 207 -132 690 -434 935 -584
124 -76 268 -166 320 -199 52 -33 136 -86 186 -118 50 -32 111 -66 135 -75 24
-10 46 -19 48 -20 8 -7 -49 -47 -144 -100 -55 -31 -172 -97 -260 -147 -158
-89 -436 -252 -670 -392 -144 -86 -356 -211 -560 -330 -82 -48 -235 -138 -340
-200 -259 -153 -263 -155 -289 -155 -13 0 -66 28 -117 62 -52 33 -152 97 -224
141 -71 44 -166 103 -210 130 -44 28 -120 75 -170 105 -49 30 -137 85 -195
122 -58 37 -222 142 -365 233 -143 90 -339 215 -435 277 -241 155 -318 203
-369 229 -43 22 -44 22 -77 5 -30 -16 -38 -17 -66 -5 -18 7 -45 15 -59 18 -40
7 -51 1 -634 -352 -143 -87 -305 -185 -360 -218 -55 -33 -126 -78 -158 -99
l-58 -40 -137 90 c-75 49 -184 118 -242 152 -58 35 -240 148 -405 250 -165
103 -322 200 -350 215 -27 16 -99 61 -160 100 -60 39 -141 88 -180 109 -147
81 -175 136 -113 222 33 47 93 88 308 213 69 40 166 99 215 131 86 55 258 159
610 368 88 52 187 112 220 132 33 21 209 126 390 235 593 354 685 410 685 415
0 3 -19 13 -43 23 -23 9 -102 53 -176 96 l-134 80 -31 -16 c-75 -39 -457 -261
-530 -308 -100 -64 -165 -103 -476 -285 -135 -78 -400 -235 -590 -348 -190
-113 -442 -263 -560 -333 -118 -69 -285 -169 -370 -221 -85 -51 -293 -174
-462 -272 l-307 -179 52 -31 c56 -34 284 -175 382 -236 33 -20 139 -86 235
-145 96 -60 242 -153 324 -208 83 -55 158 -102 168 -105 10 -2 18 -11 18 -18
0 -19 -10 -18 -40 3 -96 67 -628 400 -885 552 -104 63 -212 126 -238 142 l-48
29 -62 -31 c-34 -18 -87 -47 -117 -67 -30 -19 -144 -86 -253 -149 -368 -211
-437 -261 -437 -316 0 -32 26 -111 47 -144 29 -45 60 -66 263 -183 70 -40 115
-68 363 -223 50 -31 122 -74 159 -95 37 -20 68 -43 68 -49 0 -7 -4 -13 -8 -13
-5 0 -57 -29 -116 -64 -71 -43 -113 -63 -124 -58 -15 6 -15 7 3 10 11 2 25 11
32 19 7 8 17 12 24 7 8 -4 10 -3 5 4 -5 8 1 12 15 12 12 0 20 3 16 6 -9 10 17
32 47 40 14 3 23 10 20 15 -3 5 0 9 6 9 7 0 10 6 7 13 -2 7 -16 11 -33 9 -20
-2 -43 6 -71 27 -22 16 -44 27 -47 23 -4 -3 -16 -7 -29 -9 -12 -2 -26 -8 -31
-13 -14 -14 -36 -12 -36 3 0 7 10 19 23 26 l22 15 -25 7 c-14 4 -44 7 -66 8
-23 1 -57 8 -77 16 -19 8 -37 12 -40 9 -10 -11 -77 8 -77 22 0 8 -10 14 -23
14 -13 0 -29 6 -35 12 -9 9 -15 10 -20 2 -13 -19 -40 -24 -38 -6 1 21 -91 82
-113 75 -9 -4 -13 -3 -9 2 15 16 -11 43 -39 40 -32 -3 -73 19 -51 28 7 3 -1 6
-18 6 -35 1 -123 46 -131 67 -3 8 -9 14 -14 14 -6 0 -5 -9 1 -20 18 -33 -6
-24 -57 23 -26 23 -43 35 -38 27 6 -12 5 -13 -6 -2 -7 6 -23 12 -35 12 -13 0
-25 4 -29 9 -3 5 -19 12 -35 16 -29 6 -42 25 -19 25 7 0 -10 12 -37 27 -27 14
-57 26 -67 25 -9 0 -15 3 -12 8 8 13 -37 51 -53 45 -7 -2 -17 5 -22 18 -5 12
-9 18 -10 12 0 -5 -14 5 -30 24 -17 18 -30 30 -30 25 2 -34 84 -126 105 -118
11 5 13 2 9 -10 -4 -9 -1 -16 6 -16 13 0 52 -44 50 -56 -2 -8 21 -24 35 -24 6
0 3 5 -5 10 -8 5 -10 10 -5 10 19 0 38 -18 31 -29 -5 -7 4 -14 23 -17 18 -4
31 -13 31 -21 0 -10 6 -13 16 -9 10 4 13 2 8 -6 -5 -8 -2 -9 10 -5 10 4 15 3
11 -3 -8 -13 30 -31 52 -24 13 4 14 3 5 -3 -15 -12 -1 -26 36 -37 12 -4 22
-12 22 -18 0 -5 7 -7 16 -4 10 4 13 2 8 -6 -5 -8 -2 -9 10 -5 9 4 15 3 11 -2
-8 -13 62 -54 77 -45 7 4 10 4 6 -1 -5 -5 2 -15 13 -23 18 -12 23 -13 30 -1 7
11 9 11 9 -2 0 -22 34 -51 64 -54 13 -2 33 -8 43 -14 23 -13 8 -14 -18 -1 -41
22 -16 -1 29 -26 26 -15 55 -34 64 -42 10 -8 26 -11 40 -7 15 4 18 3 10 -3 -9
-6 5 -20 52 -50 35 -23 67 -42 71 -42 3 0 27 -16 52 -35 26 -20 53 -33 60 -30
8 2 11 0 8 -5 -3 -6 -2 -10 3 -10 5 0 30 -14 56 -31 29 -20 63 -33 89 -35 64
-5 116 -24 187 -70 117 -75 349 -209 525 -304 186 -100 430 -245 595 -355 58
-38 153 -99 212 -135 174 -105 216 -139 231 -185 10 -35 13 -10 17 199 l5 238
40 35 c38 33 149 98 302 178 40 21 73 43 73 51 0 16 -76 66 -378 247 -128 77
-273 168 -322 203 -49 35 -110 75 -136 89 -43 23 -49 24 -68 10 -76 -53 -388
-225 -364 -200 3 3 55 33 114 66 138 77 244 146 244 159 0 5 -21 21 -47 34
-50 26 -93 55 -81 56 4 0 24 -10 45 -22 21 -11 88 -47 149 -78 98 -52 112 -56
121 -41 10 13 11 11 7 -11 -5 -32 -7 -30 226 -166 131 -77 312 -184 375 -222
13 -8 59 -36 100 -62 l77 -48 50 26 c27 14 102 58 166 98 123 77 162 99 162
93 0 -2 -32 -24 -71 -48 -40 -24 -147 -93 -240 -154 -92 -60 -213 -134 -268
-164 -162 -87 -222 -124 -217 -137 3 -7 -2 -10 -14 -7 -12 3 -20 -2 -25 -17
-4 -12 -4 -127 0 -256 6 -180 11 -236 21 -245 16 -13 2 -39 -21 -39 -18 0
-218 112 -375 209 -69 43 -188 115 -265 161 -77 46 -196 120 -265 165 -69 45
-152 98 -185 119 -33 20 -139 87 -235 148 -234 147 -294 184 -645 393 -165 98
-367 220 -450 270 -82 51 -314 190 -515 311 -201 120 -393 240 -427 266 l-63
47 0 -1847 1 -1847 77 -48 c42 -27 113 -72 157 -100 260 -165 698 -441 1080
-680 88 -55 212 -133 275 -173 63 -39 187 -117 275 -172 88 -54 237 -148 330
-207 439 -280 565 -358 1125 -705 294 -182 541 -336 896 -561 55 -35 203 -127
328 -204 125 -77 282 -177 349 -221 178 -120 612 -397 682 -436 457 -258 1027
-372 1540 -307 171 22 441 88 588 144 216 82 315 133 677 349 168 100 348 206
400 235 52 30 158 91 235 136 77 45 196 113 265 150 145 80 290 165 443 259
59 36 109 66 112 66 3 0 62 32 133 71 70 40 150 84 178 99 123 67 174 96 254
145 79 49 417 242 625 358 216 120 251 140 263 152 11 10 3 17 -40 39 -75 37
-157 81 -164 88 -3 4 3 11 13 16 13 7 24 6 38 -5 16 -13 17 -15 3 -10 -10 4
-18 2 -18 -2 0 -12 29 -23 41 -16 4 3 45 -13 89 -36 62 -31 87 -39 108 -34 15
3 78 38 140 76 62 38 154 92 205 120 51 28 155 88 232 134 77 45 228 133 335
195 107 62 198 118 202 124 4 6 8 8 8 3 0 -4 28 10 63 31 34 22 154 93 267
160 346 203 438 242 570 242 63 0 92 -8 275 -75 49 -18 50 -18 115 5 69 24
161 66 357 161 67 32 124 59 127 59 3 0 28 14 57 30 28 17 56 29 63 26 7 -3 7
-5 -2 -5 -7 -1 -21 -9 -32 -19 -25 -24 -201 -127 -325 -191 -134 -70 -181 -97
-240 -140 -27 -20 -58 -41 -70 -47 -52 -28 -222 -128 -235 -138 -8 -6 -35 -22
-60 -35 -25 -13 -63 -36 -85 -51 -22 -14 -49 -29 -59 -33 -21 -8 -198 -118
-206 -128 -3 -3 -28 -17 -55 -31 -79 -39 -226 -118 -265 -142 -19 -12 -44 -27
-55 -34 -11 -7 -31 -17 -45 -23 -13 -5 -27 -14 -30 -18 -3 -5 -36 -25 -75 -46
-38 -21 -108 -63 -155 -93 -155 -101 -231 -149 -275 -173 -32 -18 -79 -46
-202 -123 -43 -27 -91 -56 -108 -64 -16 -9 -51 -31 -77 -49 -26 -18 -50 -33
-53 -33 -4 0 -36 -20 -73 -43 -91 -59 -152 -95 -232 -138 -37 -20 -83 -45
-101 -56 -19 -12 -50 -30 -69 -41 -19 -11 -89 -53 -155 -92 -66 -40 -140 -84
-165 -98 -25 -13 -72 -41 -105 -62 -166 -103 -454 -280 -485 -296 -19 -11 -82
-44 -140 -75 -58 -30 -130 -70 -160 -89 -30 -18 -84 -50 -120 -70 -36 -21
-105 -62 -155 -92 -49 -30 -130 -76 -180 -103 -49 -26 -106 -58 -125 -70 -19
-12 -64 -38 -100 -57 -36 -19 -128 -72 -205 -118 -77 -45 -164 -95 -193 -111
-28 -16 -69 -39 -90 -52 -20 -13 -45 -26 -55 -30 -10 -4 -85 -46 -165 -94
-305 -182 -371 -212 -672 -315 -259 -88 -359 -108 -770 -148 -246 -24 -426
-25 -706 -5 -242 17 -268 20 -389 46 -88 19 -128 30 -250 69 -33 10 -94 28
-135 40 -163 47 -420 162 -617 277 -50 29 -109 61 -130 71 -38 18 -106 60
-215 133 -32 22 -60 39 -63 39 -7 0 -203 121 -280 173 -33 22 -91 61 -130 87
-38 26 -115 73 -170 105 -55 32 -107 64 -115 70 -8 7 -40 25 -70 41 -52 27
-169 99 -363 223 -49 31 -112 70 -140 87 -29 17 -94 57 -144 90 -51 32 -122
77 -159 99 -36 22 -98 61 -138 86 -39 26 -105 68 -146 95 -41 26 -127 79 -190
116 -154 92 -362 223 -605 383 -60 40 -126 80 -145 90 -19 10 -78 46 -130 80
-52 34 -117 75 -145 90 -27 14 -80 48 -118 73 -37 26 -112 74 -167 107 -97 59
-220 136 -350 220 -36 23 -135 83 -220 135 -161 96 -255 157 -304 197 -16 13
-72 49 -125 80 -53 31 -140 89 -193 130 l-98 73 0 -2785 0 -2785 7680 0 7680
0 0 2546 0 2547 -52 -7 c-59 -7 -149 -45 -145 -61 2 -5 20 -11 40 -13 20 -2
37 -7 37 -13 0 -5 -3 -9 -7 -9 -5 0 -24 -14 -43 -30 l-35 -29 30 1 c17 1 52
-8 77 -20 44 -19 48 -24 64 -78 17 -58 21 -135 10 -171 -6 -19 -41 -38 -117
-62 -52 -16 -77 -14 -175 15 -112 33 -158 34 -220 3 -42 -21 -53 -33 -78 -86
-32 -68 -45 -78 -80 -62 -38 18 -49 54 -29 92 35 68 65 106 80 100 12 -5 12 0
-2 33 -9 21 -23 42 -31 47 -8 4 -26 19 -42 33 l-27 24 52 48 c29 27 54 57 56
68 1 11 13 33 26 49 16 22 19 30 9 33 -7 2 -32 12 -56 24 l-43 20 -45 -23
c-25 -13 -76 -52 -114 -87 -39 -35 -70 -59 -70 -54 0 18 12 42 21 42 15 0 139
127 131 135 -4 5 -1 5 6 1 7 -4 15 0 19 10 5 12 -4 26 -28 46 l-34 29 33 28
c18 16 79 52 135 81 56 30 118 63 137 75 75 46 152 85 169 85 10 0 24 -6 31
-14 6 -8 21 -17 33 -19 16 -2 18 -5 7 -9 -21 -7 -78 -28 -125 -45 -22 -8 -64
-25 -92 -39 -29 -13 -66 -27 -83 -31 -48 -9 -44 -19 19 -43 33 -12 62 -28 64
-35 3 -7 23 -16 44 -20 56 -10 123 -42 123 -58 0 -8 -7 -20 -16 -27 -8 -8 -19
-21 -24 -31 -8 -14 -6 -16 13 -12 12 3 28 10 34 16 7 5 19 7 27 4 7 -3 22 0
32 7 20 13 56 26 182 67 l72 24 0 5107 0 5108 -2200 0 -2200 0 0 -120z m-450
-2720 c0 -29 -4 -40 -15 -40 -11 0 -15 11 -15 40 0 29 4 40 15 40 11 0 15 -11
15 -40z m123 -47 c-7 -2 -21 -2 -30 0 -10 3 -4 5 12 5 17 0 24 -2 18 -5z m42
-11 c-3 -3 -11 0 -18 7 -9 10 -8 11 6 5 10 -3 15 -9 12 -12z m-170 -70 c16
-12 16 -32 0 -26 -8 4 -13 10 -10 14 3 5 -1 11 -7 13 -7 3 -8 6 -3 6 6 0 15
-3 20 -7z m55 -7 c-7 -8 -17 -15 -23 -15 -6 0 -2 7 9 15 25 19 30 19 14 0z
m-120 -20 c0 -2 -9 -9 -20 -15 -16 -9 -20 -8 -20 5 0 8 9 15 20 15 11 0 20 -2
20 -5z m-18 -53 c-12 -2 -20 -8 -17 -13 4 -5 0 -9 -9 -9 -8 0 -16 5 -18 12 -2
6 -15 0 -31 -16 -30 -30 -37 -22 -10 10 12 16 28 21 62 21 25 0 36 -2 23 -5z
m-135 -88 c-3 -3 -12 -4 -19 -1 -8 3 -5 6 6 6 11 1 17 -2 13 -5z m-370 -318
c0 -8 -6 -12 -15 -9 -11 5 -11 7 0 14 7 5 13 9 14 9 0 0 1 -6 1 -14z m-6 -33
c13 -15 12 -15 -8 -4 -24 12 -29 21 -14 21 5 0 15 -7 22 -17z m-81 -17 c0 -2
-7 -7 -16 -10 -8 -3 -12 -2 -9 4 6 10 25 14 25 6z m331 -275 c13 -10 57 -35
98 -55 40 -21 71 -39 69 -41 -2 -2 -30 9 -63 25 -33 16 -81 34 -107 41 -36 8
-48 16 -48 30 0 24 21 24 51 0z m234 -136 c19 -15 18 -15 -12 -1 -17 9 -35 21
-39 27 -8 13 21 -1 51 -26z m80 -50 l20 -16 -20 10 c-11 5 -29 17 -40 26 l-20
16 20 -10 c11 -5 29 -17 40 -26z m278 -178 c-5 -8 -84 33 -123 64 -14 11 9 3
51 -18 41 -21 74 -41 72 -46z m-889 -243 c9 -3 16 -17 16 -30 0 -33 -40 -49
-87 -33 -36 12 -49 29 -39 54 6 15 78 21 110 9z m3997 -68 c-7 -8 -38 -32 -69
-53 -31 -21 -59 -41 -62 -44 -9 -11 -172 -114 -235 -148 -42 -23 -54 -27 -40
-13 11 11 36 29 55 39 55 30 155 96 158 105 2 4 9 8 15 8 7 0 46 27 87 59 71
56 119 81 91 47z m-2873 -169 c3 -15 -2 -18 -25 -15 -17 2 -29 10 -31 21 -3
15 2 18 25 15 17 -2 29 -10 31 -21z m32 -51 c0 -2 -28 -23 -62 -47 -35 -23
-85 -58 -113 -77 -27 -19 -119 -76 -205 -125 -85 -49 -170 -98 -187 -109 -18
-11 -33 -15 -33 -10 0 5 28 24 63 42 178 94 399 232 490 307 26 21 47 29 47
19z m-190 -196 c0 -12 -28 -25 -36 -17 -9 9 6 27 22 27 8 0 14 -5 14 -10z
m2310 -40 c-8 -5 -19 -10 -25 -10 -5 0 -3 5 5 10 8 5 20 10 25 10 6 0 3 -5 -5
-10z m-370 -214 c0 -2 -60 -38 -132 -81 -73 -42 -176 -103 -228 -134 -52 -31
-104 -60 -114 -64 -11 -4 -26 -13 -34 -19 -8 -7 -21 -13 -30 -14 -8 -2 -18 -7
-21 -12 -9 -14 -52 -34 -59 -28 -3 3 0 6 7 6 7 0 9 4 6 10 -4 6 1 7 11 3 11
-4 15 -2 11 4 -4 6 17 23 51 40 117 61 188 101 242 135 45 29 279 157 288 158
1 0 2 -2 2 -4z m-2010 -143 c0 -7 -8 -17 -17 -20 -10 -4 -109 -64 -220 -133
-111 -69 -266 -162 -345 -208 -78 -45 -224 -130 -323 -188 -99 -59 -223 -131
-275 -161 -151 -88 -576 -341 -679 -404 -52 -32 -96 -57 -99 -55 -16 16 74 93
208 178 72 46 308 185 490 289 80 45 197 115 260 154 178 111 304 186 440 262
231 130 512 305 519 324 4 14 41 -20 41 -38z m-8811 -234 c222 -123 238 -139
184 -177 -52 -37 -402 -212 -423 -212 -42 0 -397 214 -407 246 -4 11 47 42
269 165 119 66 149 78 177 74 18 -2 108 -46 200 -96z m10161 -13 c0 -2 -7 -7
-16 -10 -8 -3 -12 -2 -9 4 6 10 25 14 25 6z m-80 -41 c0 -3 -57 -39 -97 -61
-13 -7 -23 -10 -23 -6 0 3 -6 -1 -12 -10 -15 -17 -260 -163 -393 -233 -49 -26
-97 -52 -105 -58 -8 -7 -6 -2 4 11 11 12 25 22 33 22 7 0 13 3 13 8 0 4 21 19
48 32 26 14 49 28 52 31 11 12 147 89 158 89 7 0 12 4 12 9 0 5 41 31 90 57
50 26 90 52 90 56 0 5 5 6 11 2 6 -3 23 2 37 13 15 11 35 22 45 26 10 4 15 11
12 17 -3 6 1 7 9 4 9 -3 16 -7 16 -9z m-10715 -535 c3 -5 -1 -10 -9 -10 -9 0
-16 5 -16 10 0 6 4 10 9 10 6 0 13 -4 16 -10z m-129 -47 c-6 -6 -36 9 -36 18
0 5 9 4 20 -3 10 -7 18 -14 16 -15z m139 -73 c3 -5 1 -10 -4 -10 -6 0 -11 5
-11 10 0 6 2 10 4 10 3 0 8 -4 11 -10z m415 -26 c0 -2 -9 -4 -20 -4 -11 0 -20
4 -20 9 0 5 9 7 20 4 11 -3 20 -7 20 -9z m45 -23 c-6 -5 -25 10 -25 20 0 5 6
4 14 -3 8 -7 12 -15 11 -17z m-256 -94 c0 -9 -2 -8 -6 1 -2 6 -10 9 -15 6 -7
-4 -8 -2 -4 5 9 13 26 5 25 -12z m3009 -10 c-29 -24 -98 -66 -86 -52 10 11
102 74 108 74 3 0 -7 -10 -22 -22z m-98 -61 c0 -2 -12 -11 -27 -20 l-28 -17
24 20 c23 21 31 25 31 17z m-60 -41 c0 -2 -10 -9 -22 -15 -22 -11 -22 -10 -4
4 21 17 26 19 26 11z m-70 -40 c0 -2 -10 -9 -22 -15 -22 -11 -22 -10 -4 4 21
17 26 19 26 11z m10188 -58 c1 -15 -9 -33 -25 -48 -14 -13 -23 -17 -18 -9 5 8
-3 5 -17 -7 -13 -13 -29 -23 -35 -23 -6 0 -13 -4 -15 -9 -1 -4 -14 -12 -28
-16 -19 -6 -16 -1 15 23 22 16 58 48 80 71 21 22 39 41 40 41 0 0 2 -11 3 -23z
m-1648 -1 c0 -2 -37 -25 -82 -51 -78 -46 -199 -120 -278 -170 -19 -13 -54 -33
-77 -46 -117 -66 -235 -136 -293 -173 -36 -24 -119 -77 -185 -118 -66 -42
-162 -103 -214 -136 -52 -34 -98 -59 -103 -56 -4 3 -8 1 -8 -5 0 -6 -21 -23
-47 -38 -53 -30 -419 -257 -443 -273 -87 -60 -104 -68 -122 -59 -15 8 -17 13
-7 25 6 8 15 14 20 14 8 0 250 146 387 234 40 25 78 43 85 40 7 -4 9 -4 5 1
-8 8 93 79 220 153 95 56 194 115 299 180 47 28 88 52 90 52 2 0 19 11 36 24
38 28 279 167 324 186 17 8 30 17 27 21 -2 4 9 10 26 14 17 4 28 11 24 16 -3
5 0 9 5 9 18 0 26 3 39 17 7 7 20 13 28 13 8 0 14 5 14 10 0 6 7 10 15 10 8 0
24 9 35 20 11 11 29 22 41 23 11 2 29 11 40 20 27 23 99 55 99 43z m-8470
-100 c0 -6 -212 -139 -360 -226 -69 -40 -179 -105 -245 -145 -173 -104 -153
-98 -220 -65 -32 16 -63 34 -69 41 -9 10 -8 11 4 2 8 -6 26 -14 40 -18 14 -4
37 -16 51 -26 l26 -18 194 118 c196 119 570 341 576 341 2 0 3 -2 3 -4z m9960
-31 c11 -13 10 -14 -5 -9 -14 6 -16 4 -10 -6 5 -8 4 -11 -2 -7 -6 4 -14 0 -17
-9 -3 -9 -13 -14 -20 -11 -8 3 -16 1 -18 -4 -3 -9 -21 -15 -50 -18 -5 -1 -8
-6 -8 -13 0 -9 3 -9 11 -1 6 6 17 9 24 7 7 -3 16 -1 20 5 3 6 14 11 23 11 11
-1 6 -7 -13 -17 -16 -10 -33 -16 -37 -15 -5 1 -8 -2 -8 -6 0 -12 -49 -34 -60
-27 -5 3 -12 0 -16 -6 -4 -8 -3 -9 4 -5 7 4 12 5 12 2 0 -11 -71 -47 -81 -40
-8 4 -9 3 -5 -4 4 -7 -4 -17 -21 -24 -15 -7 -31 -17 -35 -23 -4 -5 -8 -6 -8
-2 0 5 -20 -6 -44 -23 -27 -19 -49 -29 -57 -25 -7 5 -10 4 -6 -2 3 -5 -14 -20
-39 -33 -42 -24 -44 -24 -61 -6 -17 18 -17 18 6 5 19 -11 25 -11 28 -1 3 6 11
12 18 12 8 0 17 5 21 12 5 8 2 9 -9 5 -10 -3 -17 -2 -17 4 0 14 100 75 118 71
8 -2 11 1 8 7 -4 5 -1 13 5 17 7 4 9 3 6 -3 -9 -15 24 -26 37 -13 8 8 6 9 -6
5 -11 -4 -18 -2 -18 4 0 6 7 11 16 11 8 0 13 4 10 9 -4 5 4 7 16 4 19 -4 20
-3 8 6 -12 9 -8 10 15 5 27 -7 29 -6 16 9 -12 15 -10 18 18 23 17 4 29 10 26
14 -3 5 7 13 23 19 26 10 75 37 97 54 7 6 57 38 71 46 1 1 7 -6 14 -14z
m-3010 -50 c-7 -8 -17 -15 -22 -15 -6 0 -5 7 2 15 7 8 17 15 22 15 6 0 5 -7
-2 -15z m-45 -24 c-13 -12 -143 -81 -175 -93 -52 -19 -2 13 86 57 93 46 104
51 89 36z m1828 -135 c15 -12 17 -34 15 -237 -1 -123 -3 -204 -5 -179 -2 25
-10 104 -19 175 -9 72 -17 153 -18 180 -1 28 -6 56 -10 63 -10 16 14 15 37 -2z
m-4886 -288 c-1 -51 -3 -12 -3 87 0 99 2 141 3 93 2 -48 2 -129 0 -180z m5558
136 c-22 -13 -42 -20 -45 -15 -3 4 -12 11 -20 15 -8 3 -2 4 13 1 21 -4 27 -2
21 6 -4 8 -3 9 4 5 7 -4 12 -2 12 3 0 6 -5 11 -12 11 -6 0 -9 3 -6 6 4 3 17 0
30 -7 22 -12 22 -11 8 6 -14 17 -14 18 9 5 l24 -12 -38 -24z m-945 -4 c0 -11
-4 -20 -10 -20 -5 0 -10 -9 -10 -20 0 -11 5 -20 10 -20 6 0 10 5 10 10 0 6 5
10 10 10 19 0 10 -22 -20 -50 -16 -15 -30 -32 -30 -37 0 -4 -13 -14 -30 -21
-16 -8 -30 -20 -30 -27 0 -7 -9 -15 -21 -18 -11 -3 -23 -15 -26 -26 -3 -12 -9
-21 -14 -21 -5 0 -23 -16 -40 -35 -17 -19 -34 -33 -38 -32 -4 1 -30 -22 -59
-50 l-53 -53 -84 0 c-50 0 -85 -4 -85 -10 0 -5 -13 -10 -30 -10 -16 0 -30 4
-30 9 0 5 -9 13 -20 16 -16 5 -20 15 -20 46 0 34 3 39 23 39 20 1 21 2 4 14
-16 13 -14 17 29 60 30 29 56 46 71 46 19 0 23 4 18 19 -4 14 2 21 27 32 18 7
42 22 54 32 12 11 24 19 28 18 4 -1 22 8 39 22 18 13 50 30 72 37 22 7 44 16
50 21 5 5 44 9 87 9 63 0 78 3 78 15 0 8 9 15 20 15 13 0 20 -7 20 -20z
m-12115 -10 c3 -5 1 -10 -4 -10 -6 0 -11 5 -11 10 0 6 2 10 4 10 3 0 8 -4 11
-10z m136 -86 c87 -56 121 -84 104 -84 -11 0 -202 129 -216 146 -18 22 -16 21
112 -62z m12849 61 c-14 -8 -29 -14 -35 -14 -5 0 1 6 15 14 14 8 30 14 35 14
6 0 -1 -6 -15 -14z m-50 -24 c0 -6 -215 -140 -293 -182 -72 -39 -132 -72 -183
-100 -74 -42 -83 -43 -80 -11 3 22 24 36 162 107 87 44 174 91 193 102 18 12
40 19 47 16 9 -3 14 2 14 13 0 15 2 16 9 5 5 -7 14 -10 20 -7 6 4 9 11 6 16
-3 5 0 12 6 16 8 4 9 3 5 -4 -9 -15 -7 -15 32 -1 17 6 33 17 36 25 6 15 26 20
26 5z m-600 -309 c-55 -40 -80 -53 -80 -43 0 6 15 17 33 24 17 8 38 21 46 31
8 9 16 14 19 11 3 -3 -5 -13 -18 -23z m-106 -63 c-18 -20 -68 -50 -80 -49 -3
1 -11 -5 -17 -13 -7 -8 -50 -37 -97 -63 -47 -27 -87 -51 -90 -55 -12 -15 -51
-29 -62 -23 -7 4 -8 3 -4 -4 3 -6 -2 -16 -13 -21 -25 -14 -31 -14 -31 -1 0 6
3 9 8 8 4 -2 8 1 9 6 2 12 81 56 100 56 8 0 11 5 7 13 -4 6 -4 9 1 5 4 -4 21
2 36 13 16 11 29 17 29 13 0 -4 6 -1 13 8 6 9 37 29 67 45 30 16 57 33 60 38
3 6 11 9 19 8 7 -1 23 7 34 18 28 25 35 24 11 -2z m-11369 -127 c-3 -3 -11 0
-18 7 -9 10 -8 11 6 5 10 -3 15 -9 12 -12z m1852 -855 c1 -463 -1 -835 -3
-827 -3 8 -8 22 -11 30 -4 8 -6 18 -5 21 1 3 4 176 8 385 l7 378 -44 38 c-31
27 -37 36 -21 31 12 -3 25 -9 28 -14 20 -34 24 26 21 406 -1 276 1 411 8 404
6 -6 11 -306 12 -852z m-1197 649 c0 -2 -7 -6 -15 -10 -8 -3 -15 -1 -15 4 0 6
7 10 15 10 8 0 15 -2 15 -4z m-1625 -989 c-11 -8 -45 -28 -75 -45 -30 -17 -71
-44 -90 -60 l-35 -29 27 -39 c24 -35 27 -53 37 -191 7 -83 18 -184 25 -223 17
-87 8 -95 -57 -57 -68 40 -68 39 -63 188 2 74 5 182 5 241 1 133 10 146 132
193 91 36 126 44 94 22z m5622 -123 c-3 -3 -12 -4 -19 -1 -8 3 -5 6 6 6 11 1
17 -2 13 -5z m-88 -27 c-2 -1 -13 -9 -24 -17 -19 -14 -19 -14 -6 3 7 9 18 17
24 17 6 0 8 -1 6 -3z m-269 -162 c0 -2 -10 -9 -22 -15 -22 -11 -22 -10 -4 4
21 17 26 19 26 11z m-70 -40 c0 -2 -13 -11 -30 -20 -38 -19 -40 -11 -2 9 31
17 32 18 32 11z m-75 -44 c-16 -14 -105 -63 -105 -58 0 5 101 66 110 67 2 0 0
-4 -5 -9z m538 -77 c18 -10 109 -63 202 -119 94 -55 248 -147 343 -204 152
-90 193 -121 164 -121 -5 0 -37 -18 -72 -41 -67 -43 -437 -252 -555 -312 -63
-33 -71 -35 -90 -22 -24 17 -97 62 -458 277 -147 88 -265 163 -262 168 11 17
663 390 683 390 7 0 27 -7 45 -16z m-863 -119 c0 -2 -10 -9 -22 -15 -22 -11
-22 -10 -4 4 21 17 26 19 26 11z m-3490 -29 c0 -6 -120 -81 -200 -124 -54 -29
-76 -47 -76 -60 0 -12 5 -18 13 -15 16 6 17 20 1 25 -7 3 -5 7 6 11 9 4 15 3
12 -2 -3 -5 7 -11 23 -14 15 -3 47 -22 70 -41 24 -20 48 -36 55 -36 7 0 23
-11 36 -25 13 -14 28 -25 34 -25 6 0 38 -14 71 -30 33 -16 56 -30 51 -30 -5 0
-3 -7 4 -15 18 -21 66 -11 169 37 46 21 85 37 87 35 2 -1 -50 -32 -114 -69
-64 -37 -184 -105 -267 -153 -192 -110 -327 -175 -365 -175 -18 0 -42 11 -63
30 -19 17 -40 30 -46 30 -6 0 -11 4 -11 9 0 5 -14 14 -30 21 -21 9 -27 16 -21
24 7 8 4 12 -9 12 -10 0 -16 -4 -13 -9 3 -5 -4 -3 -15 4 -12 7 -18 17 -15 22
3 4 -5 11 -17 14 -12 3 -19 11 -16 19 3 9 0 11 -11 7 -9 -4 -21 1 -29 11 -8
11 -18 15 -26 10 -8 -4 -10 -3 -5 2 5 5 25 10 44 10 22 1 30 -1 22 -6 -7 -5
-17 -6 -21 -4 -4 3 -8 0 -8 -7 0 -7 9 -9 23 -5 12 3 30 6 40 6 13 0 17 5 13
18 -7 22 34 66 41 44 4 -10 9 -8 18 5 13 17 14 16 24 -10 6 -16 9 -33 5 -38
-3 -5 -1 -9 3 -9 20 0 34 73 32 165 -1 53 1 99 5 103 10 10 448 228 464 230 6
1 12 0 12 -2z m3440 -1 c0 -2 -10 -9 -22 -15 -22 -11 -22 -10 -4 4 21 17 26
19 26 11z m9090 -31 c-8 -8 -23 -20 -34 -26 -14 -6 -11 -1 8 16 32 29 45 34
26 10z m-9140 1 c0 -2 -10 -9 -22 -15 -22 -11 -22 -10 -4 4 21 17 26 19 26 11z
m-80 -49 c0 -2 -8 -10 -17 -17 -16 -13 -17 -12 -4 4 13 16 21 21 21 13z m-530
-101 c58 -32 121 -60 141 -62 38 -5 184 36 224 63 11 8 24 14 30 14 5 0 -12
-14 -40 -30 -58 -35 -157 -70 -196 -70 -31 0 -277 119 -298 144 -13 15 -12 16
10 8 13 -6 71 -35 129 -67z m490 71 c0 -2 -18 -15 -40 -30 -22 -14 -40 -24
-40 -22 0 5 71 56 77 56 2 0 3 -2 3 -4z m2332 -161 c28 -14 63 -25 77 -25 24
-1 23 -2 -12 -21 -67 -35 -724 -432 -776 -468 -14 -10 -37 -24 -51 -30 -42
-20 47 54 130 108 104 68 510 319 592 366 l67 39 -42 24 c-72 41 -64 45 15 7z
m-6327 -195 c-3 -5 -11 -10 -16 -10 -6 0 -7 5 -4 10 3 6 11 10 16 10 6 0 7 -4
4 -10z m13995 -15 c16 -19 0 -19 -26 0 -16 12 -16 14 -3 15 9 0 22 -7 29 -15z
m-5456 -20 c-4 -8 -14 -15 -23 -15 -14 1 -13 3 3 15 25 19 27 19 20 0z m-1614
-19 c0 -2 -19 -16 -42 -32 -24 -16 -54 -39 -69 -52 -14 -12 -33 -28 -41 -35
-25 -20 -31 -64 -11 -76 10 -6 12 -11 6 -11 -20 0 -15 -19 12 -44 28 -26 34
-51 9 -42 -9 3 -2 -12 17 -35 24 -31 33 -53 35 -83 1 -43 17 -51 41 -19 6 8
17 12 23 8 6 -4 16 -2 23 3 7 5 24 12 39 16 15 3 53 24 84 46 32 22 63 40 70
40 7 0 26 11 42 25 17 14 33 25 37 25 3 0 22 12 41 27 42 32 283 173 295 173
18 0 8 -23 -18 -47 -16 -13 -172 -110 -348 -215 -176 -105 -365 -218 -420
-251 -55 -33 -149 -89 -210 -125 -60 -36 -166 -100 -235 -142 -69 -42 -183
-109 -255 -150 -71 -40 -285 -166 -475 -280 -190 -114 -371 -217 -403 -229
-32 -12 -89 -26 -127 -31 -59 -8 -75 -7 -112 9 -47 20 -414 229 -713 405 -104
62 -226 132 -270 156 -44 24 -174 98 -290 165 -273 158 -428 245 -600 338
-309 166 -696 386 -765 434 -32 23 -33 25 -8 19 14 -3 57 -23 95 -45 117 -66
544 -297 623 -336 41 -21 88 -47 103 -57 15 -11 35 -17 43 -14 8 3 12 2 9 -4
-3 -6 3 -10 14 -10 11 0 24 -8 30 -17 6 -11 22 -17 45 -17 20 0 36 -4 36 -8 0
-4 5 -8 10 -8 6 0 10 9 10 21 0 11 -4 18 -9 14 -5 -3 -12 -1 -15 4 -9 14 4 41
19 41 7 0 25 25 40 55 14 30 31 55 36 55 5 0 9 5 9 12 0 6 6 19 14 27 8 9 16
23 18 31 2 8 11 23 21 34 10 12 13 22 7 24 -5 2 -7 9 -3 15 4 7 0 8 -11 4 -10
-4 -15 -3 -11 3 3 5 -5 14 -17 21 -13 7 -34 23 -48 37 -25 25 -17 23 30 -8 14
-10 58 -36 97 -60 41 -24 70 -47 66 -53 -3 -6 -1 -7 6 -3 6 4 43 -11 84 -35
133 -77 201 -116 292 -164 142 -75 340 -190 759 -442 214 -128 392 -233 396
-233 8 0 463 277 795 485 105 65 271 167 370 228 99 60 238 145 308 190 97 61
131 77 139 69 7 -7 16 -12 22 -12 5 0 2 6 -9 13 -16 13 -13 17 41 47 32 19 84
51 114 72 56 38 60 41 60 34z m1550 -16 c-26 -20 -98 -60 -107 -60 -17 0 109
79 127 79 3 0 -6 -8 -20 -19z m5060 -14 c0 -6 -105 -72 -170 -105 -36 -19 -92
-52 -125 -73 -36 -24 -52 -31 -40 -18 35 39 137 106 234 154 97 47 101 49 101
42z m430 -46 c0 -5 -21 -10 -46 -10 -30 0 -59 -8 -80 -21 -42 -25 -70 -20 -31
6 45 29 157 47 157 25z m-5610 -9 c0 -5 -26 -24 -57 -42 -32 -18 -70 -40 -84
-49 -14 -8 -48 -28 -75 -44 -27 -16 -71 -44 -99 -61 -27 -18 -86 -54 -130 -80
-44 -26 -104 -63 -133 -82 -29 -19 -57 -33 -62 -31 -5 2 52 41 127 88 134 83
506 309 511 310 1 0 2 -4 2 -9z m5650 -34 c0 -7 -6 -19 -12 -26 -11 -10 -4
-12 32 -10 25 1 59 -4 75 -11 30 -12 30 -12 -50 -38 -50 -16 -99 -24 -131 -23
-36 1 -57 -3 -68 -14 -14 -15 -18 -15 -31 -1 -13 13 -13 15 3 21 11 3 41 7 68
9 50 4 76 26 30 26 -14 0 -26 5 -26 10 0 6 15 10 33 10 26 1 29 3 15 10 -11 7
-32 7 -60 1 -23 -6 -44 -8 -46 -6 -7 7 70 35 97 35 14 0 33 5 41 10 21 13 30
12 30 -3z m-11910 -214 c25 -14 137 -83 250 -153 253 -157 430 -266 580 -358
63 -38 119 -77 124 -85 15 -24 -32 -68 -129 -124 -44 -25 -118 -69 -165 -97
-47 -28 -117 -64 -157 -80 l-71 -28 -39 30 c-21 17 -157 102 -303 189 -673
404 -734 443 -715 461 6 6 100 56 210 113 110 56 222 114 250 129 65 35 108
36 165 3z m7079 3 c9 -11 9 -16 0 -22 -7 -4 -9 -3 -5 4 3 6 -2 15 -11 21 -10
6 -13 11 -7 11 6 0 17 -6 23 -14z m46 -34 c-3 -3 -11 0 -18 7 -9 10 -8 11 6 5
10 -3 15 -9 12 -12z m157 -76 c81 -53 92 -65 39 -43 -17 7 -29 16 -25 19 3 4
-12 12 -34 19 -46 13 -32 20 -497 -249 -137 -79 -340 -196 -450 -259 -110 -64
-253 -147 -319 -186 -146 -86 -427 -247 -431 -247 -2 0 -34 -19 -71 -42 -38
-23 -107 -62 -154 -88 -47 -26 -215 -123 -375 -215 -321 -186 -397 -224 -500
-250 -121 -30 -159 -25 -270 34 -142 76 -185 111 -135 111 27 0 87 31 175 90
39 25 142 88 230 140 180 105 302 177 520 307 83 50 177 105 210 123 95 53
218 131 247 158 14 13 31 21 37 18 6 -4 9 -1 6 6 -4 11 12 14 72 16 53 2 97
10 138 26 52 21 91 31 233 61 12 3 32 8 45 11 12 4 63 6 112 5 87 -1 91 -3
115 -31 l25 -30 33 21 c38 25 41 33 10 24 -18 -5 -20 -4 -8 4 8 6 23 8 32 5
10 -3 47 12 87 35 38 23 72 41 75 41 3 0 40 20 82 45 41 25 77 45 80 45 2 0
34 19 71 42 98 59 305 178 400 229 66 34 80 46 71 57 -24 28 47 -1 124 -52z
m493 -6 c26 -17 27 -20 9 -20 -11 0 -29 9 -39 20 -23 26 -9 26 30 0z m-2175
-39 c0 -8 -82 -51 -97 -51 -6 0 85 58 95 59 1 1 2 -3 2 -8z m5500 -183 c0 -18
-33 -42 -44 -31 -9 10 -7 42 5 64 10 20 11 20 24 2 8 -10 15 -26 15 -35z
m-3335 -59 c-4 -6 -1 -10 6 -8 35 4 43 -1 24 -15 -17 -12 -21 -12 -32 3 -15
20 -16 31 -2 31 5 0 7 -5 4 -11z m1955 -268 c0 -10 -62 -50 -150 -98 -118 -65
-410 -229 -500 -281 -52 -31 -156 -90 -230 -133 -303 -172 -696 -403 -1012
-596 -128 -78 -168 -97 -153 -72 27 42 1267 774 1945 1147 75 42 100 50 100
33z m-4880 -36 c0 -2 -10 -9 -22 -15 -22 -11 -22 -10 -4 4 21 17 26 19 26 11z
m6510 1 c0 -2 3 -11 6 -19 4 -12 0 -14 -15 -10 -24 6 -29 33 -6 33 8 0 15 -2
15 -4z m-6610 -62 c-63 -38 -342 -204 -420 -251 -106 -64 -160 -94 -160 -89 0
4 142 92 360 221 201 119 245 144 255 145 6 0 -10 -12 -35 -26z m4855 -140
c-26 -20 -95 -56 -95 -49 0 5 102 65 110 65 3 -1 -4 -8 -15 -16z m-165 -98 c0
-2 -7 -7 -16 -10 -8 -3 -12 -2 -9 4 6 10 25 14 25 6z m-100 -51 c0 -2 -10 -9
-22 -15 -22 -11 -22 -10 -4 4 21 17 26 19 26 11z m-54 -34 c-6 -9 -133 -85
-491 -296 -110 -65 -231 -137 -270 -160 -75 -45 -281 -166 -382 -224 -194
-112 -355 -207 -493 -290 -85 -51 -211 -126 -280 -166 -69 -39 -141 -81 -160
-92 -113 -66 -567 -324 -634 -360 -83 -45 -119 -53 -44 -10 24 14 149 86 278
159 510 292 600 345 959 563 107 64 341 203 520 307 179 105 400 234 491 288
163 96 240 140 415 239 97 55 99 55 91 42z m-5141 -37 c-25 -20 -75 -46 -75
-40 0 5 82 56 90 56 3 -1 -4 -8 -15 -16z m319 -7 c13 -20 5 -30 -18 -21 -9 3
-16 15 -16 26 0 22 18 20 34 -5z m-404 -41 c0 -5 -141 -88 -340 -201 -85 -48
-218 -127 -295 -175 -268 -168 -350 -197 -466 -170 -60 14 -163 59 -155 67 3
3 11 1 18 -4 21 -16 98 -44 152 -54 109 -20 178 7 466 184 102 62 268 160 370
217 102 56 196 111 210 121 24 17 40 24 40 15z m-2016 -71 c11 -8 16 -15 10
-15 -5 0 -18 7 -28 15 -11 8 -16 15 -10 15 5 0 18 -7 28 -15z m126 -81 c0 -2
-9 0 -20 6 -11 6 -20 13 -20 16 0 2 9 0 20 -6 11 -6 20 -13 20 -16z m373 -184
c17 0 -44 -39 -148 -95 -49 -27 -178 -99 -285 -160 -241 -139 -402 -225 -429
-230 -15 -3 -21 1 -21 13 0 21 63 64 195 133 55 29 147 80 205 114 158 94 442
237 458 230 7 -3 19 -5 25 -5z m247 -136 c0 -2 -9 0 -20 6 -11 6 -20 13 -20
16 0 2 9 0 20 -6 11 -6 20 -13 20 -16z m2340 -1453 c0 -38 -254 -128 -537
-190 -404 -88 -915 -114 -1310 -67 -151 18 -187 34 -149 65 11 9 61 8 218 -5
248 -20 690 -15 893 10 204 26 492 89 775 170 96 28 110 30 110 17z"/>
<path d="M14110 8530 c8 -5 20 -10 25 -10 6 0 3 5 -5 10 -8 5 -19 10 -25 10
-5 0 -3 -5 5 -10z"/>
<path d="M13990 8449 c0 -5 5 -7 10 -4 6 3 10 8 10 11 0 2 -4 4 -10 4 -5 0
-10 -5 -10 -11z"/>
<path d="M13929 8431 l-24 -19 27 1 c14 1 24 5 21 10 -2 4 3 7 12 7 9 0 13 5
10 10 -9 15 -20 12 -46 -9z"/>
<path d="M1610 5735 c-11 -13 -10 -14 4 -9 9 3 16 10 16 15 0 13 -6 11 -20 -6z"/>
<path d="M7895 5220 c3 -6 1 -10 -6 -10 -7 0 -10 -3 -6 -6 3 -3 13 -2 22 4 16
8 16 9 1 15 -10 4 -15 3 -11 -3z"/>
<path d="M8076 4954 c-5 -14 -4 -15 9 -4 17 14 19 20 6 20 -5 0 -12 -7 -15
-16z"/>
<path d="M8015 4939 c-4 -6 -5 -12 -2 -15 2 -3 7 2 10 11 7 17 1 20 -8 4z"/>
<path d="M4540 4860 c-9 -6 -10 -10 -3 -10 6 0 15 5 18 10 8 12 4 12 -15 0z"/>
<path d="M3173 5055 c-29 -13 -72 -37 -95 -53 -24 -16 -107 -62 -185 -102 -79
-40 -143 -78 -143 -84 0 -6 15 -21 33 -33 46 -31 248 -153 254 -153 2 0 19
-10 36 -23 43 -30 58 -39 160 -95 48 -27 85 -51 83 -53 -3 -3 3 -5 14 -5 15 0
17 3 7 16 -10 12 -10 13 3 4 9 -6 26 -8 40 -3 14 4 19 7 11 8 -8 1 4 14 27 30
22 16 43 34 47 40 3 6 13 11 22 11 9 0 24 6 32 14 9 7 41 25 71 41 30 15 63
31 72 36 10 5 25 9 33 9 9 0 18 6 21 14 3 8 23 17 45 21 21 4 39 10 39 13 0
10 -93 91 -104 91 -5 -1 -12 4 -15 9 -6 9 -68 47 -128 79 -18 9 -33 20 -33 25
0 4 -4 8 -10 8 -5 0 -44 23 -87 52 -82 55 -147 92 -179 101 -10 3 -42 -5 -71
-18z"/>
<path d="M3356 4445 c-4 -13 -2 -14 14 -5 23 13 26 20 6 20 -8 0 -16 -7 -20
-15z"/>
<path d="M9445 4469 c-4 -6 -4 -13 -1 -16 3 -4 6 -1 6 6 0 8 8 11 20 8 11 -3
18 -1 14 4 -7 12 -31 11 -39 -2z"/>
<path d="M8510 13365 c0 -2 10 -10 23 -16 20 -11 21 -11 8 4 -13 16 -31 23
-31 12z"/>
<path d="M8560 13336 c0 -4 213 -127 320 -184 36 -19 72 -39 80 -46 13 -9 13
-9 3 5 -7 9 -41 31 -75 49 -35 18 -112 60 -173 95 -138 78 -155 87 -155 81z"/>
<path d="M7160 13180 c-9 -6 -10 -10 -3 -10 6 0 15 5 18 10 8 12 4 12 -15 0z"/>
<path d="M6854 13004 c-60 -36 -113 -71 -119 -77 -5 -6 1 -4 15 4 14 9 69 42
123 74 85 51 106 65 94 65 -2 0 -53 -30 -113 -66z"/>
<path d="M8924 13038 c-22 -11 -91 -51 -154 -88 -63 -37 -216 -126 -340 -197
-124 -72 -261 -152 -305 -177 -44 -26 -132 -77 -195 -113 -133 -76 -418 -240
-472 -272 -42 -25 -41 -44 3 -66 23 -12 30 -12 41 -2 20 19 157 100 403 237
121 67 301 169 400 225 186 106 424 238 555 308 100 54 180 106 180 116 0 12
-21 28 -52 40 -20 8 -34 5 -64 -11z"/>
<path d="M4480 12920 c0 -29 4 -40 15 -40 11 0 15 11 15 40 0 29 -4 40 -15 40
-11 0 -15 -11 -15 -40z"/>
<path d="M6680 12901 c-14 -10 -81 -51 -150 -90 -155 -89 -173 -99 -185 -101
-20 -4 -45 -27 -37 -34 4 -5 0 -7 -8 -6 -25 4 -44 0 -37 -7 4 -3 -19 -22 -52
-42 -72 -45 -89 -59 -103 -85 -7 -14 0 -10 19 10 17 17 131 91 254 164 248
146 349 210 334 210 -5 -1 -21 -9 -35 -19z"/>
<path d="M4704 12552 c5 -8 66 -4 66 4 0 2 -16 4 -36 4 -19 0 -33 -4 -30 -8z"/>
<path d="M6078 12485 c-6 -14 -15 -25 -20 -25 -4 0 -7 -3 -5 -8 3 -9 -62 -72
-77 -73 -6 -1 -14 -1 -18 0 -5 0 -8 -4 -8 -10 0 -8 -4 -8 -14 0 -10 8 -16 9
-21 1 -3 -5 -3 -10 2 -10 4 -1 -6 -9 -24 -18 -17 -9 -71 -39 -119 -66 -49 -27
-94 -49 -101 -49 -7 0 -10 -4 -7 -8 6 -10 -33 -22 -45 -14 -5 3 -12 1 -16 -5
-3 -5 -1 -10 5 -10 6 0 8 -5 5 -11 -8 -11 64 23 141 69 27 16 99 55 159 86
112 59 156 97 174 148 12 35 5 37 -11 3z"/>
<path d="M11580 12506 c0 -2 8 -10 18 -17 15 -13 16 -12 3 4 -13 16 -21 21
-21 13z"/>
<path d="M4630 12421 c-30 -10 -116 -56 -190 -103 -74 -47 -180 -111 -235
-143 -55 -31 -167 -99 -250 -150 -82 -51 -240 -146 -349 -211 -110 -65 -218
-132 -240 -148 l-40 -29 34 -30 c30 -25 78 -51 155 -82 11 -4 30 -7 42 -6 12
1 34 -4 50 -12 34 -17 106 -32 83 -17 -13 8 -12 10 3 10 10 0 37 13 60 29 23
15 53 32 66 36 18 6 21 9 10 16 -9 6 -4 7 15 3 23 -5 27 -4 21 6 -6 10 -4 12
9 7 9 -4 15 -3 11 2 -3 5 21 21 52 36 124 57 152 73 145 80 -4 5 -1 5 6 1 7
-5 44 11 90 37 42 24 131 75 197 112 136 76 213 123 335 205 47 31 131 83 188
115 56 31 100 60 98 63 -3 3 -14 -1 -23 -9 -16 -13 -17 -12 -4 4 8 10 20 16
27 13 18 -7 217 109 220 129 2 12 -1 13 -10 6 -7 -6 -16 -7 -20 -3 -4 4 -7 2
-6 -3 5 -22 -1 -26 -16 -11 -8 9 -21 16 -27 16 -8 0 -8 -3 1 -9 11 -7 11 -9
-2 -14 -9 -4 -16 -16 -16 -27 0 -19 -15 -25 -48 -21 -8 1 -24 -5 -37 -13 -19
-12 -31 -14 -52 -6 -25 9 -26 8 -10 -4 21 -16 21 -22 1 -30 -8 -3 -12 -2 -9 4
3 5 -5 15 -19 21 -14 7 -23 16 -20 21 8 13 -17 5 -38 -12 -20 -16 -24 -50 -6
-68 9 -9 7 -13 -5 -18 -9 -3 -22 -4 -29 -1 -7 3 -2 6 11 6 17 1 21 4 13 14 -5
6 -12 32 -16 57 -7 47 -21 78 -31 69 -3 -4 -7 -32 -8 -63 -2 -43 0 -55 10 -52
7 3 15 1 18 -3 2 -5 -6 -12 -20 -15 -14 -4 -25 -11 -25 -16 0 -5 7 -7 15 -4 8
4 15 1 15 -5 0 -6 -7 -11 -15 -11 -8 0 -12 -6 -9 -13 3 -8 -3 -20 -12 -28 -16
-13 -16 -11 -11 21 16 85 19 190 8 218 -22 53 -70 63 -161 33z m530 -65 c0 -2
-7 -7 -16 -10 -8 -3 -12 -2 -9 4 6 10 25 14 25 6z m-321 -53 c-1 -37 -1 -37
-8 -8 -7 28 -5 45 5 45 2 0 3 -17 3 -37z m227 -8 c-11 -8 -24 -15 -30 -15 -5
0 -1 7 10 15 10 8 24 14 29 14 6 0 1 -6 -9 -14z m-141 -65 c3 -6 -1 -7 -9 -4
-18 7 -21 14 -7 14 6 0 13 -4 16 -10z m-1212 -717 c-7 -2 -19 -2 -25 0 -7 3
-2 5 12 5 14 0 19 -2 13 -5z"/>
<path d="M11672 12394 c-12 -13 -30 -24 -38 -24 -9 0 -12 -5 -8 -12 5 -8 2 -9
-12 -4 -10 4 -15 4 -11 0 4 -5 -22 -22 -58 -39 -36 -17 -63 -34 -59 -37 7 -7
157 70 162 83 2 5 13 9 23 9 11 0 18 4 15 9 -4 5 2 7 11 5 10 -3 27 2 38 10
17 13 17 15 3 16 -9 0 -22 2 -30 4 -7 3 -23 -6 -36 -20z"/>
<path d="M5253 12389 c10 -6 21 -9 23 -6 3 2 19 -9 35 -24 17 -16 35 -26 40
-23 5 3 9 1 9 -3 0 -5 15 -17 33 -27 l32 -18 -35 30 c-19 17 -37 30 -40 30
-19 -1 -23 4 -10 12 11 7 11 10 2 10 -8 0 -10 5 -6 13 5 7 1 7 -10 -2 -15 -12
-19 -12 -26 -1 -4 7 -21 14 -37 16 -24 2 -25 1 -10 -7z"/>
<path d="M4861 12334 c0 -11 3 -14 6 -6 3 7 2 16 -1 19 -3 4 -6 -2 -5 -13z"/>
<path d="M4980 12316 c0 -9 30 -14 35 -6 4 6 -3 10 -14 10 -12 0 -21 -2 -21
-4z"/>
<path d="M11449 12278 c-9 -30 -6 -37 12 -27 11 5 17 14 14 20 -6 8 -24 13
-26 7z"/>
<path d="M5515 12230 c3 -5 11 -10 16 -10 6 0 7 5 4 10 -3 6 -11 10 -16 10 -6
0 -7 -4 -4 -10z"/>
<path d="M10160 12226 c0 -9 5 -16 10 -16 6 0 10 4 10 9 0 6 -4 13 -10 16 -5
3 -10 -1 -10 -9z"/>
<path d="M11363 12212 c-62 -32 -82 -50 -33 -30 41 18 109 58 95 57 -5 0 -33
-13 -62 -27z"/>
<path d="M11909 12105 c-64 -27 -132 -66 -126 -71 2 -2 34 13 72 33 46 24 83
36 111 37 33 1 40 4 32 14 -14 16 -24 15 -89 -13z"/>
<path d="M10025 12108 c-11 -6 -24 -17 -30 -24 -5 -7 -19 -14 -30 -17 -16 -4
-15 -5 6 -6 14 0 30 4 36 10 8 8 16 8 30 -1 17 -11 17 -11 -1 -5 -11 3 -22 1
-25 -4 -8 -12 -51 -16 -74 -6 -30 13 -64 -3 -78 -37 l-13 -33 -4 48 -3 47 -40
0 c-28 0 -39 -4 -39 -15 0 -11 -11 -15 -40 -15 -29 0 -40 4 -40 15 0 11 -11
15 -40 15 -36 0 -40 -2 -40 -25 l0 -25 -160 0 -160 0 -1 -27 c0 -19 -3 -23 -7
-13 -4 8 -14 16 -23 16 -12 1 -20 -14 -30 -55 -7 -31 -19 -70 -26 -88 -14 -35
-17 -71 -3 -38 6 14 9 -5 9 -57 1 -42 -3 -80 -9 -83 -13 -8 -13 -75 0 -95 5
-9 5 -19 -2 -27 -26 -32 6 -19 93 37 52 33 101 63 109 67 25 12 332 192 339
199 3 4 -5 1 -18 -6 -13 -6 -21 -7 -17 -2 3 6 0 13 -6 15 -7 3 3 3 23 1 30 -3
52 6 125 50 49 29 134 79 188 111 90 53 97 59 81 71 -23 17 -53 17 -80 2z
m-220 -118 c-3 -5 -15 -10 -26 -10 -11 0 -17 5 -14 10 3 6 15 10 26 10 11 0
17 -4 14 -10z m-110 -80 c3 -5 1 -10 -4 -10 -6 0 -11 5 -11 10 0 6 2 10 4 10
3 0 8 -4 11 -10z m30 0 c3 -5 1 -10 -4 -10 -6 0 -11 5 -11 10 0 6 2 10 4 10 3
0 8 -4 11 -10z m-180 -88 c-3 -3 -11 0 -18 7 -9 10 -8 11 6 5 10 -3 15 -9 12
-12z m-149 -74 c-10 -6 -22 -6 -26 -2 -5 5 3 10 18 11 22 1 24 0 8 -9z m79 2
c3 -6 -1 -7 -9 -4 -18 7 -21 14 -7 14 6 0 13 -4 16 -10z m-38 -16 c-3 -3 -12
-4 -19 -1 -8 3 -5 6 6 6 11 1 17 -2 13 -5z m-235 -94 c-2 -22 -6 -40 -8 -40
-2 0 -4 18 -4 40 0 22 3 40 8 40 4 0 6 -18 4 -40z"/>
<path d="M12043 12070 c14 -11 29 -20 33 -20 4 0 -3 9 -16 20 -13 11 -27 20
-33 20 -5 0 2 -9 16 -20z"/>
<path d="M10105 12030 c6 -10 4 -12 -8 -7 -9 3 -19 2 -22 -3 -9 -15 11 -20 30
-6 14 10 15 15 5 21 -9 6 -11 4 -5 -5z"/>
<path d="M11820 12030 c-9 -6 -10 -10 -3 -10 6 0 15 5 18 10 8 12 4 12 -15 0z"/>
<path d="M11315 12020 c3 -5 11 -10 16 -10 6 0 7 5 4 10 -3 6 -11 10 -16 10
-6 0 -7 -4 -4 -10z"/>
<path d="M11723 12002 c-58 -38 -67 -50 -15 -21 24 13 48 29 54 36 14 18 9 16
-39 -15z"/>
<path d="M12155 12010 c3 -5 12 -10 20 -10 7 0 15 -7 19 -15 3 -8 17 -15 32
-15 22 0 24 -3 15 -14 -8 -9 -8 -16 -2 -20 5 -4 12 -2 16 4 3 5 11 10 16 10 6
0 7 -4 4 -10 -7 -11 8 -14 18 -3 9 9 -43 43 -65 43 -10 0 -18 4 -18 8 0 5 -11
14 -25 20 -32 15 -38 15 -30 2z"/>
<path d="M10030 11991 c0 -5 -8 -12 -17 -14 -15 -4 -15 -5 -2 -6 9 0 22 6 29
14 9 10 9 15 1 15 -6 0 -11 -4 -11 -9z"/>
<path d="M11450 11950 c30 -16 60 -29 65 -29 6 0 -15 13 -45 29 -30 16 -59 29
-65 29 -5 0 15 -13 45 -29z"/>
<path d="M11635 11950 c-3 -6 1 -7 9 -4 18 7 21 14 7 14 -6 0 -13 -4 -16 -10z"/>
<path d="M12620 11695 c-63 -36 -114 -70 -112 -76 1 -6 -2 -8 -7 -5 -5 4 -47
-17 -93 -45 -45 -28 -105 -62 -132 -76 -41 -21 -47 -27 -33 -34 11 -7 26 -5
47 6 16 8 30 13 30 11 0 -3 -14 -13 -31 -22 -25 -12 -29 -18 -18 -25 11 -7 11
-9 1 -9 -7 0 -10 -4 -7 -10 3 -6 -1 -7 -10 -3 -12 4 -13 8 -5 13 13 8 -13 40
-33 40 -15 0 -43 -18 -37 -23 30 -25 163 -96 172 -91 6 4 8 3 5 -3 -8 -12 101
-66 115 -57 6 4 8 3 5 -4 -4 -6 17 -23 48 -41 30 -17 55 -38 55 -46 0 -9 -42
-35 -107 -66 -104 -49 -173 -92 -173 -107 0 -13 71 -53 82 -46 6 4 8 3 5 -3
-3 -5 33 -32 81 -60 48 -27 143 -83 212 -123 69 -40 153 -88 187 -107 l63 -35
82 42 c125 64 173 91 381 217 208 125 294 185 301 211 2 10 7 26 10 38 4 13
-1 29 -14 44 -11 13 -20 19 -20 14 0 -5 -7 2 -16 14 -9 13 -22 21 -30 18 -8
-3 -13 0 -11 6 2 10 -13 21 -152 106 -72 44 -87 50 -75 30 4 -7 3 -8 -5 -4 -6
4 -9 12 -6 17 4 5 -2 12 -12 16 -10 3 -30 14 -44 24 -14 10 -37 16 -52 15 -14
-2 -24 1 -21 6 3 5 12 7 20 4 30 -12 11 4 -41 33 -31 18 -61 29 -67 25 -6 -4
-8 -3 -5 3 7 10 -191 133 -213 133 -5 0 -10 4 -10 8 0 12 -154 92 -176 92 -11
0 -71 -29 -134 -65z m395 -85 c3 -6 -1 -7 -9 -4 -18 7 -21 14 -7 14 6 0 13 -4
16 -10z m60 -40 c3 -5 1 -10 -4 -10 -6 0 -11 5 -11 10 0 6 2 10 4 10 3 0 8 -4
11 -10z m-598 -37 c0 -8 -6 -9 -18 -2 -24 12 -32 11 -23 -3 4 -7 3 -8 -5 -4
-6 4 -9 11 -6 16 8 12 52 7 52 -7z m-163 -117 c3 -22 1 -24 -11 -14 -11 9 -11
13 -1 19 11 7 11 9 0 9 -7 0 -10 5 -7 11 9 14 16 6 19 -25z m131 -76 c13 -6
15 -9 5 -9 -8 0 -22 4 -30 9 -18 12 -2 12 25 0z m-30 -18 c-3 -3 -11 0 -18 7
-9 10 -8 11 6 5 10 -3 15 -9 12 -12z m1085 -8 c0 -2 -9 0 -20 6 -11 6 -20 13
-20 16 0 2 9 0 20 -6 11 -6 20 -13 20 -16z"/>
<path d="M12108 11743 c7 -3 16 -2 19 1 4 3 -2 6 -13 5 -11 0 -14 -3 -6 -6z"/>
<path d="M1955 11291 c-154 -87 -203 -116 -232 -138 -18 -13 -34 -22 -35 -21
-2 2 -16 -7 -32 -19 -16 -13 -33 -23 -38 -23 -14 0 -38 -27 -30 -34 3 -4 -1
-4 -11 0 -9 3 -17 1 -17 -4 0 -6 -10 -12 -22 -14 -13 -2 -23 -10 -23 -18 0 -8
-9 -15 -20 -16 -30 -1 -56 -15 -48 -27 3 -5 2 -7 -4 -4 -6 4 -30 -7 -55 -22
-43 -27 -65 -40 -183 -106 -27 -16 -126 -74 -220 -130 -93 -56 -213 -126 -265
-156 -168 -95 -240 -160 -316 -286 -25 -41 -34 -69 -34 -100 0 -24 5 -43 10
-43 6 0 10 8 10 18 0 12 3 14 8 4 16 -24 77 -32 197 -26 66 3 144 6 174 7 33
1 56 7 59 15 2 6 17 12 34 12 34 0 52 15 61 51 12 48 107 122 287 224 96 54
210 120 253 147 43 26 80 48 83 48 2 0 38 21 81 46 43 25 107 62 143 82 36 20
97 56 135 81 39 24 133 82 210 128 155 93 224 142 225 159 0 16 -13 25 -122
83 -53 28 -120 64 -148 81 -28 16 -54 30 -58 30 -4 0 -29 -13 -57 -29z m-295
-231 c0 -5 -5 -10 -11 -10 -5 0 -7 5 -4 10 3 6 8 10 11 10 2 0 4 -4 4 -10z"/>
<path d="M1620 9260 c0 -5 5 -10 11 -10 5 0 7 5 4 10 -3 6 -8 10 -11 10 -2 0
-4 -4 -4 -10z"/>
<path d="M1631 9233 c-8 -3 1 -11 25 -19 21 -7 40 -11 42 -9 2 2 -6 6 -17 10
-12 3 -21 11 -21 16 0 10 -7 10 -29 2z"/>
<path d="M1772 9155 c9 -10 21 -16 28 -13 7 2 -1 10 -16 17 -27 12 -28 11 -12
-4z"/>
<path d="M14769 4887 c-50 -24 -99 -65 -99 -84 0 -6 13 -14 30 -18 23 -5 38 0
72 24 114 80 112 131 -3 78z m-38 -80 c-13 -13 -26 -3 -16 12 3 6 11 8 17 5 6
-4 6 -10 -1 -17z"/>
</g>
</svg>
